<?xml version="1.0" encoding="UTF-8"?>
<svg width="108px" height="45px" viewBox="0 0 108 45" version="1.1" xmlns="http://www.w3.org/2000/svg" xmlns:xlink="http://www.w3.org/1999/xlink">
    <!-- Generator: Sketch 52.4 (67378) - http://www.bohemiancoding.com/sketch -->
    <title>logo</title>
    <desc>Created with Sketch.</desc>
    <g id="Page-1" stroke="none" stroke-width="1" fill="none" fill-rule="evenodd">
        <g id="1024_РБК+" transform="translate(-19.000000, -60.000000)">
            <g id="logo" transform="translate(19.000000, 60.000000)">
                <g id="Group-2" fill="#222222">
                    <path d="M10.7279761,14.3496922 C13.9835716,14.3496922 15.7142857,12.7553891 15.7142857,9.77655966 L15.7142857,9.60825604 C15.7142857,6.41964989 13.900952,5.16098957 10.7279761,5.16098957 L7.34868987,5.16098957 L7.34868987,14.3496922 L10.7279761,14.3496922 Z M0.714285714,0 L10.8927378,0 C18.0629756,0 22.1428571,3.23056149 22.1428571,9.56678294 L22.1428571,9.73412207 C22.1428571,16.0698613 17.8160718,19.0911283 11.0985705,19.0911283 L7.34868987,19.0911283 L7.34868987,30 L0.714285714,30 L0.714285714,0 Z" id="Fill-3"></path>
                    <path d="M36.7790217,24.8390104 C39.9731829,24.8390104 41.5906457,23.4125287 41.5906457,20.6849491 L41.5906457,20.51761 C41.5906457,17.8319857 39.9731829,16.3635487 36.6173691,16.3635487 L32.8974857,16.3635487 L32.8974857,24.8390104 L36.7790217,24.8390104 Z M37.0217349,30 L26.4285714,30 L26.4285714,0 L45.2697646,0 L45.2697646,5.2868556 L32.9382503,5.2868556 L32.8974857,11.5801572 L37.2236834,11.5801572 C43.8950149,11.5801572 47.8571429,14.5594689 47.8571429,20.5590831 L47.8571429,20.7273867 C47.8571429,26.6011349 44.178024,30 37.0217349,30 Z" id="Fill-5"></path>
                    <polygon id="Fill-8" points="50.7142857 0.041896751 57.6804298 0.041896751 57.6804298 12.9470592 68.4303876 0 75.8265897 0 63.6573904 14.2039617 76.4285714 30 68.3013203 30 57.6804298 16.5501798 57.6804298 30 50.7142857 30"></polygon>
                </g>
                <path d="M94,13.5 L107.5,13.5 L107.5,16.5 L94,16.5 L94,30 L91,30 L91,16.5 L77.5,16.5 L77.5,13.5 L91,13.5 L91,-5.32907052e-15 L94,-5.32907052e-15 L94,13.5 Z" id="cross" fill="#00B6DF"></path>
                <path d="M4.734,43 L5.94,43 L5.94,36.565 L0.738,36.565 L0.738,43 L1.944,43 L1.944,37.528 L4.734,37.528 L4.734,43 Z M8.811,42.307 C9.477,42.307 9.972,41.956 9.972,41.353 L9.972,40.885 L9.414,40.885 C8.586,40.885 8.055,41.074 8.055,41.65 C8.055,42.046 8.271,42.307 8.811,42.307 Z M8.55,43.09 C7.686,43.09 6.975,42.676 6.975,41.695 C6.975,40.597 8.037,40.201 9.387,40.201 L9.972,40.201 L9.972,39.958 C9.972,39.328 9.756,39.013 9.117,39.013 C8.55,39.013 8.271,39.283 8.217,39.751 L7.164,39.751 C7.254,38.653 8.127,38.194 9.18,38.194 C10.233,38.194 11.061,38.626 11.061,39.913 L11.061,43 L9.99,43 L9.99,42.424 C9.684,42.829 9.27,43.09 8.55,43.09 Z M14.67,42.226 C15.471,42.226 15.912,41.686 15.912,40.678 L15.912,40.606 C15.912,39.562 15.372,39.049 14.661,39.049 C13.905,39.049 13.365,39.562 13.365,40.606 L13.365,40.678 C13.365,41.731 13.878,42.226 14.67,42.226 Z M12.312,44.611 L12.312,38.293 L13.401,38.293 L13.401,39.049 C13.662,38.599 14.247,38.194 14.94,38.194 C16.119,38.194 17.028,39.067 17.028,40.588 L17.028,40.66 C17.028,42.172 16.155,43.09 14.94,43.09 C14.193,43.09 13.653,42.721 13.401,42.262 L13.401,44.611 L12.312,44.611 Z M21.528,38.293 L17.559,38.293 L17.559,39.103 L18.999,39.103 L18.999,43 L20.088,43 L20.088,39.103 L21.528,39.103 L21.528,38.293 Z M25.416,43 L26.505,43 L26.505,38.293 L25.416,38.293 L25.416,40.192 L23.463,40.192 L23.463,38.293 L22.374,38.293 L22.374,43 L23.463,43 L23.463,41.002 L25.416,41.002 L25.416,43 Z M29.871,43.09 C28.485,43.09 27.486,42.181 27.486,40.696 L27.486,40.624 C27.486,39.166 28.485,38.194 29.826,38.194 C30.996,38.194 32.049,38.887 32.049,40.57 L32.049,40.885 L28.602,40.885 C28.638,41.776 29.088,42.28 29.898,42.28 C30.555,42.28 30.897,42.019 30.978,41.56 L32.031,41.56 C31.878,42.55 31.077,43.09 29.871,43.09 Z M28.62,40.156 L30.969,40.156 C30.915,39.346 30.501,38.986 29.826,38.986 C29.169,38.986 28.728,39.427 28.62,40.156 Z M35.379,42.226 C36.18,42.226 36.621,41.686 36.621,40.678 L36.621,40.606 C36.621,39.562 36.081,39.049 35.37,39.049 C34.614,39.049 34.074,39.562 34.074,40.606 L34.074,40.678 C34.074,41.731 34.587,42.226 35.379,42.226 Z M33.021,44.611 L33.021,38.293 L34.11,38.293 L34.11,39.049 C34.371,38.599 34.956,38.194 35.649,38.194 C36.828,38.194 37.737,39.067 37.737,40.588 L37.737,40.66 C37.737,42.172 36.864,43.09 35.649,43.09 C34.902,43.09 34.362,42.721 34.11,42.262 L34.11,44.611 L33.021,44.611 Z M40.779,43.09 C42.057,43.09 42.876,42.325 42.957,41.245 L41.958,41.245 C41.895,41.911 41.4,42.253 40.824,42.253 C40.023,42.253 39.519,41.713 39.519,40.687 L39.519,40.615 C39.519,39.643 40.05,39.067 40.797,39.067 C41.373,39.067 41.787,39.328 41.877,39.958 L42.93,39.958 C42.804,38.662 41.823,38.194 40.779,38.194 C39.465,38.194 38.403,39.139 38.403,40.633 L38.403,40.705 C38.403,42.208 39.429,43.09 40.779,43.09 Z M46.746,43 L48.006,43 L46.026,40.471 L47.853,38.293 L46.665,38.293 L44.982,40.381 L44.982,38.293 L43.893,38.293 L43.893,43 L44.982,43 L44.982,40.696 L46.746,43 Z M49.842,43 L51.876,39.67 L51.876,43 L52.956,43 L52.956,38.293 L51.876,38.293 L49.842,41.623 L49.842,38.293 L48.753,38.293 L48.753,43 L49.842,43 Z M56.277,43.09 C54.891,43.09 53.892,42.181 53.892,40.696 L53.892,40.624 C53.892,39.166 54.891,38.194 56.232,38.194 C57.402,38.194 58.455,38.887 58.455,40.57 L58.455,40.885 L55.008,40.885 C55.044,41.776 55.494,42.28 56.304,42.28 C56.961,42.28 57.303,42.019 57.384,41.56 L58.437,41.56 C58.284,42.55 57.483,43.09 56.277,43.09 Z M55.026,40.156 L57.375,40.156 C57.321,39.346 56.907,38.986 56.232,38.986 C55.575,38.986 55.134,39.427 55.026,40.156 Z M64.521,43 L65.61,43 L65.61,38.293 L61.569,38.293 L61.569,43 L62.658,43 L62.658,39.103 L64.521,39.103 L64.521,43 Z M69.264,42.226 C70.065,42.226 70.506,41.686 70.506,40.678 L70.506,40.606 C70.506,39.562 69.966,39.049 69.255,39.049 C68.499,39.049 67.959,39.562 67.959,40.606 L67.959,40.678 C67.959,41.731 68.472,42.226 69.264,42.226 Z M66.906,44.611 L66.906,38.293 L67.995,38.293 L67.995,39.049 C68.256,38.599 68.841,38.194 69.534,38.194 C70.713,38.194 71.622,39.067 71.622,40.588 L71.622,40.66 C71.622,42.172 70.749,43.09 69.534,43.09 C68.787,43.09 68.247,42.721 67.995,42.262 L67.995,44.611 L66.906,44.611 Z M74.7,43.09 C73.314,43.09 72.288,42.127 72.288,40.696 L72.288,40.624 C72.288,39.166 73.323,38.194 74.709,38.194 C76.086,38.194 77.121,39.157 77.121,40.597 L77.121,40.669 C77.121,42.136 76.086,43.09 74.7,43.09 Z M74.709,42.244 C75.519,42.244 76.005,41.641 76.005,40.678 L76.005,40.615 C76.005,39.643 75.519,39.049 74.709,39.049 C73.899,39.049 73.404,39.634 73.404,40.606 L73.404,40.678 C73.404,41.641 73.881,42.244 74.709,42.244 Z M80.172,43.09 C78.786,43.09 77.787,42.181 77.787,40.696 L77.787,40.624 C77.787,39.166 78.786,38.194 80.127,38.194 C81.297,38.194 82.35,38.887 82.35,40.57 L82.35,40.885 L78.903,40.885 C78.939,41.776 79.389,42.28 80.199,42.28 C80.856,42.28 81.198,42.019 81.279,41.56 L82.332,41.56 C82.179,42.55 81.378,43.09 80.172,43.09 Z M78.921,40.156 L81.27,40.156 C81.216,39.346 80.802,38.986 80.127,38.986 C79.47,38.986 79.029,39.427 78.921,40.156 Z M86.175,43 L87.435,43 L85.455,40.471 L87.282,38.293 L86.094,38.293 L84.411,40.381 L84.411,38.293 L83.322,38.293 L83.322,43 L84.411,43 L84.411,40.696 L86.175,43 Z M91.701,38.293 L87.732,38.293 L87.732,39.103 L89.172,39.103 L89.172,43 L90.261,43 L90.261,39.103 L91.701,39.103 L91.701,38.293 Z M96.768,43 L97.857,43 L97.857,38.293 L96.768,38.293 L96.768,43 Z M92.547,43 L92.547,38.293 L93.636,38.293 L93.636,39.841 L94.437,39.841 C95.49,39.841 96.246,40.345 96.246,41.407 L96.246,41.434 C96.246,42.478 95.517,43 94.41,43 L92.547,43 Z M93.636,42.208 L94.284,42.208 C94.878,42.208 95.157,41.974 95.157,41.425 L95.157,41.398 C95.157,40.903 94.905,40.633 94.284,40.633 L93.636,40.633 L93.636,42.208 Z" id="Партнерские-проекты" fill="#222222"></path>
            </g>
        </g>
    </g>
</svg>